<svg xmlns="http://www.w3.org/2000/svg" xmlns:xlink="http://www.w3.org/1999/xlink" width="500" zoomAndPan="magnify" viewBox="0 0 375 374.999991" height="500" preserveAspectRatio="xMidYMid meet" version="1.0"><defs><clipPath id="05fcf6bcf5"><path d="M 187.5 0 C 83.945312 0 0 83.945312 0 187.5 C 0 291.054688 83.945312 375 187.5 375 C 291.054688 375 375 291.054688 375 187.5 C 375 83.945312 291.054688 0 187.5 0 Z M 187.5 0 " clip-rule="nonzero"/></clipPath><clipPath id="1260f299d8"><path d="M 86.277344 84.78125 L 233 84.78125 L 233 232 L 86.277344 232 Z M 86.277344 84.78125 " clip-rule="nonzero"/></clipPath><clipPath id="88269bb183"><path d="M 142 143 L 288.644531 143 L 288.644531 290.28125 L 142 290.28125 Z M 142 143 " clip-rule="nonzero"/></clipPath></defs><g clip-path="url(#05fcf6bcf5)"><rect x="-37.5" width="450" fill="#8b5cf6" y="-37.499999" height="449.999989" fill-opacity="1"/></g><g clip-path="url(#1260f299d8)"><path fill="#ffffff" d="M 197.917969 128.640625 C 194.339844 128.640625 190.898438 127.320312 188.210938 124.953125 C 180.488281 118.167969 170.394531 114.03125 159.3125 114.03125 C 135.078125 114.03125 115.429688 133.683594 115.429688 157.921875 C 115.421875 182.15625 135.078125 201.792969 159.3125 201.792969 L 217.816406 201.792969 C 225.894531 201.792969 232.445312 208.34375 232.445312 216.421875 C 232.445312 224.5 225.894531 231.054688 217.816406 231.054688 L 159.3125 231.054688 C 118.933594 231.046875 86.1875 198.304688 86.1875 157.914062 C 86.1875 117.519531 118.933594 84.800781 159.3125 84.78125 C 177.808594 84.792969 194.699219 91.664062 207.574219 102.988281 C 217.722656 111.910156 211.429688 128.640625 197.917969 128.640625 Z M 197.917969 128.640625 " fill-opacity="1" fill-rule="nonzero"/></g><g clip-path="url(#88269bb183)"><path fill="#ffffff" d="M 177.085938 246.375 C 180.660156 246.375 184.105469 247.699219 186.792969 250.058594 C 194.511719 256.84375 204.597656 260.984375 215.683594 260.984375 C 239.988281 260.984375 259.671875 241.199219 259.558594 216.878906 C 259.445312 192.648438 239.429688 173.207031 215.199219 173.207031 L 157.183594 173.207031 C 149.105469 173.207031 142.558594 166.660156 142.558594 158.582031 C 142.558594 150.503906 149.105469 143.957031 157.183594 143.957031 L 215.691406 143.957031 C 256.0625 143.957031 288.824219 176.699219 288.824219 217.089844 C 288.824219 257.480469 256.070312 290.203125 215.691406 290.222656 C 197.195312 290.207031 180.308594 283.339844 167.4375 272.015625 C 157.28125 263.105469 163.574219 246.375 177.085938 246.375 Z M 177.085938 246.375 " fill-opacity="1" fill-rule="nonzero"/></g></svg>